<?xml version="1.0" encoding="utf-8"?>
<!-- Generator: Adobe Illustrator 23.0.4, SVG Export Plug-In . SVG Version: 6.00 Build 0)  -->
<svg version="1.1" id="Layer_1" xmlns="http://www.w3.org/2000/svg" xmlns:xlink="http://www.w3.org/1999/xlink" x="0px" y="0px"
	 viewBox="0 0 100 100" style="enable-background:new 0 0 100 100;" xml:space="preserve">
<style type="text/css">
	.st0{fill:#FFFFFF;}
</style>
<title>alert-icon</title>
<path class="st0" d="M91.8,88H8.1c-3.7-0.8-6.9-2.2-8.2-6.3v-3.5c0.8-1.8,1.5-3.6,2.5-5.2C15.3,51,28.1,29,41,7.1
	C42.8,4,45,1.3,48.4,0h3.1C55,1.3,57.2,4,59,7.1c7.7,13.3,15.6,26.5,23.3,39.8c6,10.4,11.9,20.9,17.8,31.3v3.5
	c-0.8,2.7-2.9,4.8-5.7,5.5C93.6,87.5,92.7,87.8,91.8,88z M50,79.8c11.2,0,22.4,0,33.6,0c4.8,0,6.6-3,4.3-7.2c-0.2-0.3-0.4-0.7-0.6-1
	L72.2,45.8c-5.9-10.2-11.9-20.3-17.9-30.5c-2.6-4.4-6-4.3-8.7,0c-0.2,0.3-0.3,0.6-0.5,0.9L20,59.1c-2.7,4.7-5.5,9.3-8.1,14
	c-1.9,3.5-0.2,6.4,3.8,6.7c0.6,0,1.2,0,1.8,0L50,79.8z"/>
<path class="st0" d="M56.7,41.5c0,2.9-0.2,5.7-0.5,8.5c-0.2,2.1-0.9,4-2,5.8C52,59,48,58.9,45.8,55.7c-1.1-1.7-1.8-3.6-2-5.6
	c-0.3-5.5-0.3-11.1-0.4-16.6c-0.1-2.2,0.6-4.4,2-6.2c2.6-3,6.8-3.1,9.1,0.1c1.1,1.8,1.8,3.8,2,6C56.7,36.1,56.7,38.8,56.7,41.5
	L56.7,41.5z"/>
<path class="st0" d="M50.1,61.7c3.3,0,6,2.7,6,6c-0.1,3.3-2.8,6-6.1,5.9s-6-2.8-5.9-6.1C44.1,64.2,46.8,61.7,50.1,61.7z"/>
</svg>
